<svg xmlns="http://www.w3.org/2000/svg" version="1.1" xmlns:xlink="http://www.w3.org/1999/xlink" xmlns:svgjs="http://svgjs.com/svgjs" width="1440" height="584" preserveAspectRatio="none" viewBox="0 0 1440 584"><g mask="url(&quot;#SvgjsMask1029&quot;)" fill="none"><path d="M566.32 306.03a26.47 26.47 0 1 0 52.86-2.86z" stroke="#e73635"></path><path d="M184.53 123.04L214.96 123.04L214.96 139.47L184.53 139.47z" stroke="#e73635"></path><path d="M913.52 265.79L919.17 265.79L919.17 310.63L913.52 310.63z" fill="#037b0b"></path><path d="M832.64 501.79a51.77 51.77 0 1 0 92.2-47.12z" stroke="#d3b714"></path><path d="M165.05 266.48L190.86 266.48L190.86 313.64L165.05 313.64z" stroke="#d3b714"></path><path d="M1055.95-7.09a53.68 53.68 0 1 0 79.12 72.57z" stroke="#d3b714"></path><path d="M387.35 501.42a52.93 52.93 0 1 0-53.84-91.15z" fill="#037b0b"></path><path d="M207.85 541.45L252.33 541.45L252.33 556.35L207.85 556.35z" fill="#037b0b"></path><path d="M815.36 468.98 a29.22 29.22 0 1 0 58.44 0 a29.22 29.22 0 1 0 -58.44 0z" fill="#e73635"></path><path d="M1121.37 119.16L1151.09 119.16L1151.09 148.88L1121.37 148.88z" fill="#037b0b"></path><path d="M1330.48 364.11L1339.67 364.11L1339.67 373.3L1330.48 373.3z" stroke="#e73635"></path><path d="M307.82 323.69L315.44 323.69L315.44 331.31L307.82 331.31z" fill="#d3b714"></path><path d="M823.84 151.87L842.09 151.87L842.09 170.12L823.84 170.12z" stroke="#e73635"></path><path d="M894.02 439.39L926.64 439.39L926.64 472.01L894.02 472.01z" stroke="#037b0b"></path><path d="M830.16 485.72L860.66 485.72L860.66 516.22L830.16 516.22z" fill="#d3b714"></path><path d="M204.6 218.06a22.83 22.83 0 1 0-12.19 44z" stroke="#037b0b"></path><path d="M694.81 356.48L727.62 356.48L727.62 389.29L694.81 389.29z" fill="#e73635"></path><path d="M1409.88 441.21L1458.67 441.21L1458.67 477.92L1409.88 477.92z" fill="#037b0b"></path><path d="M515.45 275.91L537.24 275.91L537.24 297.7L515.45 297.7z" fill="#e73635"></path><path d="M1109.95 49.35L1156.8 49.35L1156.8 66.1L1109.95 66.1z" fill="#e73635"></path><path d="M868.62 392.09 a30.38 30.38 0 1 0 60.76 0 a30.38 30.38 0 1 0 -60.76 0z" fill="#d3b714"></path><path d="M661.76 472.48L717.93 472.48L717.93 490.03L661.76 490.03z" fill="#d3b714"></path><path d="M1344.95 492.27L1381.49 492.27L1381.49 528.81L1344.95 528.81z" stroke="#d3b714"></path><path d="M421.08 47.47a33.44 33.44 0 1 0 25.62-61.77z" stroke="#e73635"></path><path d="M1058.28 456.55L1073.8 456.55L1073.8 472.07L1058.28 472.07z" stroke="#e73635"></path><path d="M355.45 125.12a25.36 25.36 0 1 0-42.45-27.77z" stroke="#037b0b"></path><path d="M-0.27 155.31 a56.05 56.05 0 1 0 112.1 0 a56.05 56.05 0 1 0 -112.1 0z" fill="#d3b714"></path><path d="M1356.9 449.62 a44.58 44.58 0 1 0 89.16 0 a44.58 44.58 0 1 0 -89.16 0z" stroke="#d3b714"></path><path d="M1106.01 158.67L1148.7 158.67L1148.7 187.21L1106.01 187.21z" stroke="#d3b714"></path><path d="M1306.57 161.43L1343.33 161.43L1343.33 201.48L1306.57 201.48z" fill="#d3b714"></path><path d="M1021.2 105.11L1039.67 105.11L1039.67 123.58L1021.2 123.58z" stroke="#e73635"></path></g><defs><mask id="SvgjsMask1029"><rect width="1440" height="584" fill="#ffffff"></rect></mask></defs></svg>